<svg width="227" height="227" viewBox="0 0 227 59" fill="none" xmlns="http://www.w3.org/2000/svg">
<path d="M69.7856 37V31H57.4256V26.56C58.4656 24.9067 59.439 23.16 60.3456 21.32C61.2523 19.48 62.0923 17.5333 62.8656 15.48C63.6656 13.4267 64.3323 11.2933 64.8656 9.08H70.5856C70.2923 10.36 69.879 11.7067 69.3456 13.12C68.839 14.5333 68.2523 15.9333 67.5856 17.32C66.919 18.7067 66.239 20.0133 65.5456 21.24C64.879 22.44 64.239 23.5067 63.6256 24.44C63.0123 25.3733 62.4923 26.08 62.0656 26.56H69.7856V19.92C70.0523 19.4133 70.319 18.8667 70.5856 18.28C70.879 17.6667 71.159 17.0533 71.4256 16.44C71.6923 15.8 71.9323 15.1733 72.1456 14.56C72.3856 13.9467 72.5723 13.3733 72.7056 12.84H75.2656V26.56H78.7856V31H75.2656V37H69.7856ZM89.9328 37V14.56H81.1328V9.56H104.773V14.56H95.9328V37H89.9328ZM105.505 37V15.96H110.105L110.545 19.24H110.825C111.092 18.5467 111.439 17.92 111.865 17.36C112.292 16.7733 112.825 16.3067 113.465 15.96C114.105 15.6133 114.852 15.44 115.705 15.44C116.159 15.44 116.572 15.4933 116.945 15.6C117.319 15.68 117.599 15.76 117.785 15.84V20.88H116.065C115.239 20.88 114.505 21 113.865 21.24C113.252 21.4533 112.732 21.8 112.305 22.28C111.879 22.76 111.559 23.3467 111.345 24.04C111.159 24.7333 111.065 25.5467 111.065 26.48V37H105.505ZM125.87 37.48C125.177 37.48 124.43 37.4 123.63 37.24C122.857 37.08 122.123 36.8 121.43 36.4C120.737 35.9733 120.163 35.3733 119.71 34.6C119.283 33.8 119.07 32.7867 119.07 31.56C119.07 30.0933 119.39 28.88 120.03 27.92C120.67 26.96 121.577 26.2133 122.75 25.68C123.95 25.12 125.377 24.7333 127.03 24.52C128.683 24.3067 130.51 24.2 132.51 24.2V22.64C132.51 22.0267 132.403 21.4933 132.19 21.04C132.003 20.5867 131.657 20.2267 131.15 19.96C130.67 19.6933 129.99 19.56 129.11 19.56C128.23 19.56 127.51 19.6667 126.95 19.88C126.417 20.0933 126.03 20.3733 125.79 20.72C125.577 21.04 125.47 21.4 125.47 21.8V22.28H120.07C120.043 22.1467 120.03 22.0267 120.03 21.92C120.03 21.7867 120.03 21.6267 120.03 21.44C120.03 20.2133 120.403 19.16 121.15 18.28C121.897 17.3733 122.95 16.68 124.31 16.2C125.67 15.72 127.257 15.48 129.07 15.48C131.017 15.48 132.643 15.7333 133.95 16.24C135.283 16.7467 136.297 17.4933 136.99 18.48C137.71 19.4667 138.07 20.7067 138.07 22.2V31.76C138.07 32.24 138.203 32.6 138.47 32.84C138.763 33.0533 139.083 33.16 139.43 33.16H140.75V36.8C140.483 36.9333 140.07 37.0667 139.51 37.2C138.95 37.36 138.27 37.44 137.47 37.44C136.697 37.44 136.003 37.32 135.39 37.08C134.803 36.8667 134.31 36.56 133.91 36.16C133.51 35.7333 133.23 35.2267 133.07 34.64H132.79C132.337 35.2 131.777 35.6933 131.11 36.12C130.47 36.5467 129.71 36.88 128.83 37.12C127.977 37.36 126.99 37.48 125.87 37.48ZM127.75 33.28C128.497 33.28 129.163 33.1733 129.75 32.96C130.337 32.72 130.83 32.4133 131.23 32.04C131.63 31.64 131.937 31.16 132.15 30.6C132.39 30.04 132.51 29.44 132.51 28.8V27.64C131.017 27.64 129.683 27.7467 128.51 27.96C127.337 28.1467 126.403 28.48 125.71 28.96C125.043 29.44 124.71 30.1067 124.71 30.96C124.71 31.44 124.83 31.8533 125.07 32.2C125.31 32.5467 125.657 32.8133 126.11 33C126.563 33.1867 127.11 33.28 127.75 33.28ZM150.953 37.48C149.22 37.48 147.713 37.0933 146.433 36.32C145.18 35.52 144.206 34.3067 143.513 32.68C142.82 31.0533 142.473 28.9733 142.473 26.44C142.473 23.9067 142.82 21.84 143.513 20.24C144.233 18.6133 145.206 17.4133 146.433 16.64C147.686 15.8667 149.126 15.48 150.753 15.48C151.66 15.48 152.5 15.5867 153.273 15.8C154.073 15.9867 154.766 16.2933 155.353 16.72C155.966 17.1467 156.486 17.6667 156.913 18.28H157.153V8.08H162.713V37H158.153L157.713 34.16H157.433C156.74 35.28 155.833 36.12 154.713 36.68C153.593 37.2133 152.34 37.48 150.953 37.48ZM152.713 32.92C153.753 32.92 154.593 32.68 155.233 32.2C155.9 31.72 156.393 31.0267 156.713 30.12C157.033 29.2133 157.193 28.1333 157.193 26.88V26.16C157.193 25.2267 157.1 24.3733 156.913 23.6C156.753 22.8267 156.486 22.1867 156.113 21.68C155.74 21.1467 155.273 20.7467 154.713 20.48C154.153 20.1867 153.486 20.04 152.713 20.04C151.593 20.04 150.7 20.2667 150.033 20.72C149.366 21.1467 148.886 21.8133 148.593 22.72C148.3 23.6 148.153 24.7067 148.153 26.04V26.96C148.153 28.2933 148.3 29.4 148.593 30.28C148.886 31.16 149.366 31.8267 150.033 32.28C150.7 32.7067 151.593 32.92 152.713 32.92ZM177.409 37.48C175.089 37.48 173.142 37.0933 171.569 36.32C169.996 35.52 168.809 34.3067 168.009 32.68C167.209 31.0533 166.809 28.9867 166.809 26.48C166.809 23.9467 167.209 21.88 168.009 20.28C168.809 18.6533 169.982 17.4533 171.529 16.68C173.102 15.88 175.022 15.48 177.289 15.48C179.422 15.48 181.222 15.8667 182.689 16.64C184.156 17.3867 185.262 18.56 186.009 20.16C186.756 21.7333 187.129 23.7733 187.129 26.28V27.72H172.449C172.502 28.9467 172.689 29.9867 173.009 30.84C173.356 31.6933 173.876 32.3333 174.569 32.76C175.289 33.16 176.236 33.36 177.409 33.36C178.049 33.36 178.622 33.28 179.129 33.12C179.662 32.96 180.116 32.72 180.489 32.4C180.862 32.08 181.156 31.68 181.369 31.2C181.582 30.72 181.689 30.1733 181.689 29.56H187.129C187.129 30.8933 186.889 32.0533 186.409 33.04C185.929 34.0267 185.262 34.8533 184.409 35.52C183.556 36.16 182.529 36.6533 181.329 37C180.156 37.32 178.849 37.48 177.409 37.48ZM172.529 24.2H181.409C181.409 23.4 181.302 22.7067 181.089 22.12C180.902 21.5333 180.636 21.0533 180.289 20.68C179.942 20.3067 179.516 20.04 179.009 19.88C178.529 19.6933 177.982 19.6 177.369 19.6C176.356 19.6 175.502 19.7733 174.809 20.12C174.142 20.44 173.622 20.9467 173.249 21.64C172.902 22.3067 172.662 23.16 172.529 24.2ZM191.208 37V15.96H195.808L196.248 19.24H196.528C196.795 18.5467 197.142 17.92 197.568 17.36C197.995 16.7733 198.528 16.3067 199.168 15.96C199.808 15.6133 200.555 15.44 201.408 15.44C201.862 15.44 202.275 15.4933 202.648 15.6C203.022 15.68 203.302 15.76 203.488 15.84V20.88H201.768C200.942 20.88 200.208 21 199.568 21.24C198.955 21.4533 198.435 21.8 198.008 22.28C197.582 22.76 197.262 23.3467 197.048 24.04C196.862 24.7333 196.768 25.5467 196.768 26.48V37H191.208ZM204.204 37L211.844 26.08L204.764 15.96H211.444L215.444 22.28H215.644L219.684 15.96H225.964L218.844 26.04L226.364 37H219.804L215.244 29.84H215.044L210.484 37H204.204Z" fill="#00A859"/>
<path d="M75.4082 55.135C74.5582 55.135 73.7982 55.025 73.1282 54.805C72.4582 54.585 71.8732 54.27 71.3732 53.86L71.8232 52.87C72.1732 53.13 72.5232 53.35 72.8732 53.53C73.2332 53.7 73.6182 53.83 74.0282 53.92C74.4382 54 74.8982 54.04 75.4082 54.04C76.2982 54.04 76.9582 53.875 77.3882 53.545C77.8182 53.215 78.0332 52.775 78.0332 52.225C78.0332 51.755 77.8832 51.395 77.5832 51.145C77.2832 50.895 76.7582 50.695 76.0082 50.545L74.4332 50.23C73.4632 50.03 72.7382 49.705 72.2582 49.255C71.7882 48.805 71.5532 48.195 71.5532 47.425C71.5532 46.795 71.7132 46.245 72.0332 45.775C72.3632 45.305 72.8232 44.94 73.4132 44.68C74.0032 44.42 74.6882 44.29 75.4682 44.29C76.2182 44.29 76.9032 44.405 77.5232 44.635C78.1432 44.855 78.6732 45.18 79.1132 45.61L78.6782 46.57C78.2082 46.15 77.7132 45.85 77.1932 45.67C76.6832 45.48 76.1032 45.385 75.4532 45.385C74.6332 45.385 73.9832 45.565 73.5032 45.925C73.0332 46.275 72.7982 46.755 72.7982 47.365C72.7982 47.855 72.9482 48.24 73.2482 48.52C73.5482 48.79 74.0432 48.995 74.7332 49.135L76.3232 49.45C77.3432 49.66 78.0932 49.975 78.5732 50.395C79.0532 50.815 79.2932 51.405 79.2932 52.165C79.2932 52.745 79.1332 53.26 78.8132 53.71C78.5032 54.16 78.0582 54.51 77.4782 54.76C76.8982 55.01 76.2082 55.135 75.4082 55.135ZM81.1689 55V47.47H82.3839V55H81.1689ZM81.0189 45.76V44.395H82.5189V45.76H81.0189ZM84.7431 55V49.21C84.7431 48.93 84.7281 48.645 84.6981 48.355C84.6781 48.055 84.6531 47.76 84.6231 47.47H85.7931L85.9431 49.12H85.7631C85.9631 48.55 86.2781 48.11 86.7081 47.8C87.1481 47.49 87.6781 47.335 88.2981 47.335C88.9281 47.335 89.4381 47.485 89.8281 47.785C90.2281 48.085 90.4981 48.55 90.6381 49.18H90.4131C90.6031 48.61 90.9381 48.16 91.4181 47.83C91.8981 47.5 92.4581 47.335 93.0981 47.335C93.9281 47.335 94.5531 47.575 94.9731 48.055C95.3931 48.525 95.6031 49.27 95.6031 50.29V55H94.3881V50.365C94.3881 49.655 94.2631 49.14 94.0131 48.82C93.7631 48.49 93.3631 48.325 92.8131 48.325C92.1831 48.325 91.6831 48.545 91.3131 48.985C90.9531 49.415 90.7731 49.995 90.7731 50.725V55H89.5581V50.365C89.5581 49.655 89.4331 49.14 89.1831 48.82C88.9331 48.49 88.5331 48.325 87.9831 48.325C87.3531 48.325 86.8581 48.545 86.4981 48.985C86.1381 49.415 85.9581 49.995 85.9581 50.725V55H84.7431ZM97.9121 58.24V49.21C97.9121 48.93 97.8971 48.645 97.8671 48.355C97.8471 48.055 97.8221 47.76 97.7921 47.47H98.9621L99.1271 49.255H98.9471C99.1071 48.665 99.4321 48.2 99.9221 47.86C100.412 47.51 100.997 47.335 101.677 47.335C102.357 47.335 102.942 47.49 103.432 47.8C103.932 48.11 104.322 48.555 104.602 49.135C104.882 49.715 105.022 50.415 105.022 51.235C105.022 52.045 104.882 52.74 104.602 53.32C104.332 53.9 103.947 54.35 103.447 54.67C102.947 54.98 102.357 55.135 101.677 55.135C101.007 55.135 100.427 54.965 99.9371 54.625C99.4471 54.285 99.1221 53.82 98.9621 53.23H99.1271V58.24H97.9121ZM101.437 54.145C102.157 54.145 102.727 53.9 103.147 53.41C103.577 52.91 103.792 52.185 103.792 51.235C103.792 50.275 103.577 49.55 103.147 49.06C102.727 48.56 102.157 48.31 101.437 48.31C100.727 48.31 100.157 48.56 99.7271 49.06C99.3071 49.55 99.0971 50.275 99.0971 51.235C99.0971 52.185 99.3071 52.91 99.7271 53.41C100.157 53.9 100.727 54.145 101.437 54.145ZM106.906 55V43.96H108.121V55H106.906ZM110.48 55V47.47H111.695V55H110.48ZM110.33 45.76V44.395H111.83V45.76H110.33ZM114.445 55V48.415H112.975V47.47H114.775L114.445 47.785V46.525C114.445 45.675 114.66 45.025 115.09 44.575C115.52 44.125 116.135 43.9 116.935 43.9C117.135 43.9 117.34 43.92 117.55 43.96C117.77 43.99 117.95 44.035 118.09 44.095V45.1C117.97 45.05 117.82 45.01 117.64 44.98C117.47 44.94 117.295 44.92 117.115 44.92C116.805 44.92 116.54 44.985 116.32 45.115C116.1 45.235 115.935 45.42 115.825 45.67C115.715 45.92 115.66 46.24 115.66 46.63V47.725L115.465 47.47H117.76V48.415H115.66V55H114.445ZM118.72 58.405L118.435 57.4C118.905 57.29 119.295 57.16 119.605 57.01C119.925 56.87 120.19 56.68 120.4 56.44C120.61 56.2 120.79 55.9 120.94 55.54L121.33 54.655L121.3 55.165L118.015 47.47H119.335L122.05 54.085H121.66L124.345 47.47H125.62L122.14 55.63C121.94 56.11 121.72 56.51 121.48 56.83C121.24 57.16 120.98 57.425 120.7 57.625C120.43 57.835 120.13 58 119.8 58.12C119.47 58.24 119.11 58.335 118.72 58.405ZM126.989 55V47.47H128.204V55H126.989ZM126.839 45.76V44.395H128.339V45.76H126.839ZM130.563 55V49.21C130.563 48.93 130.548 48.645 130.518 48.355C130.498 48.055 130.473 47.76 130.443 47.47H131.613L131.763 49.12H131.583C131.803 48.54 132.153 48.1 132.633 47.8C133.123 47.49 133.688 47.335 134.328 47.335C135.218 47.335 135.888 47.575 136.338 48.055C136.798 48.525 137.028 49.27 137.028 50.29V55H135.813V50.365C135.813 49.655 135.668 49.14 135.378 48.82C135.098 48.49 134.658 48.325 134.058 48.325C133.358 48.325 132.803 48.54 132.393 48.97C131.983 49.4 131.778 49.975 131.778 50.695V55H130.563ZM142.667 58.345C142.017 58.345 141.417 58.265 140.867 58.105C140.317 57.945 139.822 57.7 139.382 57.37L139.742 56.455C140.052 56.675 140.357 56.85 140.657 56.98C140.957 57.11 141.267 57.205 141.587 57.265C141.907 57.335 142.247 57.37 142.607 57.37C143.347 57.37 143.907 57.175 144.287 56.785C144.667 56.395 144.857 55.84 144.857 55.12V52.915H145.007C144.847 53.505 144.517 53.975 144.017 54.325C143.517 54.665 142.932 54.835 142.262 54.835C141.572 54.835 140.972 54.685 140.462 54.385C139.962 54.075 139.572 53.64 139.292 53.08C139.022 52.51 138.887 51.84 138.887 51.07C138.887 50.31 139.022 49.65 139.292 49.09C139.572 48.53 139.962 48.1 140.462 47.8C140.972 47.49 141.572 47.335 142.262 47.335C142.942 47.335 143.527 47.505 144.017 47.845C144.517 48.185 144.847 48.655 145.007 49.255L144.857 49.105L144.992 47.47H146.177C146.137 47.76 146.107 48.055 146.087 48.355C146.067 48.645 146.057 48.93 146.057 49.21V54.955C146.057 56.075 145.767 56.92 145.187 57.49C144.617 58.06 143.777 58.345 142.667 58.345ZM142.487 53.845C143.217 53.845 143.792 53.605 144.212 53.125C144.632 52.635 144.842 51.95 144.842 51.07C144.842 50.19 144.632 49.51 144.212 49.03C143.792 48.55 143.217 48.31 142.487 48.31C141.767 48.31 141.192 48.55 140.762 49.03C140.332 49.51 140.117 50.19 140.117 51.07C140.117 51.95 140.332 52.635 140.762 53.125C141.192 53.605 141.767 53.845 142.487 53.845ZM152.302 58.24V49.21C152.302 48.93 152.287 48.645 152.257 48.355C152.237 48.055 152.212 47.76 152.182 47.47H153.352L153.517 49.255H153.337C153.497 48.665 153.822 48.2 154.312 47.86C154.802 47.51 155.387 47.335 156.067 47.335C156.747 47.335 157.332 47.49 157.822 47.8C158.322 48.11 158.712 48.555 158.992 49.135C159.272 49.715 159.412 50.415 159.412 51.235C159.412 52.045 159.272 52.74 158.992 53.32C158.722 53.9 158.337 54.35 157.837 54.67C157.337 54.98 156.747 55.135 156.067 55.135C155.397 55.135 154.817 54.965 154.327 54.625C153.837 54.285 153.512 53.82 153.352 53.23H153.517V58.24H152.302ZM155.827 54.145C156.547 54.145 157.117 53.9 157.537 53.41C157.967 52.91 158.182 52.185 158.182 51.235C158.182 50.275 157.967 49.55 157.537 49.06C157.117 48.56 156.547 48.31 155.827 48.31C155.117 48.31 154.547 48.56 154.117 49.06C153.697 49.55 153.487 50.275 153.487 51.235C153.487 52.185 153.697 52.91 154.117 53.41C154.547 53.9 155.117 54.145 155.827 54.145ZM164.161 55.135C163.491 55.135 162.906 54.98 162.406 54.67C161.906 54.35 161.516 53.9 161.236 53.32C160.966 52.74 160.831 52.045 160.831 51.235C160.831 50.415 160.966 49.715 161.236 49.135C161.516 48.555 161.906 48.11 162.406 47.8C162.906 47.49 163.491 47.335 164.161 47.335C164.841 47.335 165.426 47.51 165.916 47.86C166.416 48.2 166.746 48.665 166.906 49.255H166.726L166.891 47.47H168.061C168.031 47.76 168.001 48.055 167.971 48.355C167.951 48.645 167.941 48.93 167.941 49.21V55H166.726V53.23H166.891C166.731 53.82 166.401 54.285 165.901 54.625C165.401 54.965 164.821 55.135 164.161 55.135ZM164.401 54.145C165.121 54.145 165.691 53.9 166.111 53.41C166.531 52.91 166.741 52.185 166.741 51.235C166.741 50.275 166.531 49.55 166.111 49.06C165.691 48.56 165.121 48.31 164.401 48.31C163.691 48.31 163.121 48.56 162.691 49.06C162.271 49.55 162.061 50.275 162.061 51.235C162.061 52.185 162.271 52.91 162.691 53.41C163.121 53.9 163.691 54.145 164.401 54.145ZM169.917 58.405L169.632 57.4C170.102 57.29 170.492 57.16 170.802 57.01C171.122 56.87 171.387 56.68 171.597 56.44C171.807 56.2 171.987 55.9 172.137 55.54L172.527 54.655L172.497 55.165L169.212 47.47H170.532L173.247 54.085H172.857L175.542 47.47H176.817L173.337 55.63C173.137 56.11 172.917 56.51 172.677 56.83C172.437 57.16 172.177 57.425 171.897 57.625C171.627 57.835 171.327 58 170.997 58.12C170.667 58.24 170.307 58.335 169.917 58.405ZM178.185 55V49.21C178.185 48.93 178.17 48.645 178.14 48.355C178.12 48.055 178.095 47.76 178.065 47.47H179.235L179.385 49.12H179.205C179.405 48.55 179.72 48.11 180.15 47.8C180.59 47.49 181.12 47.335 181.74 47.335C182.37 47.335 182.88 47.485 183.27 47.785C183.67 48.085 183.94 48.55 184.08 49.18H183.855C184.045 48.61 184.38 48.16 184.86 47.83C185.34 47.5 185.9 47.335 186.54 47.335C187.37 47.335 187.995 47.575 188.415 48.055C188.835 48.525 189.045 49.27 189.045 50.29V55H187.83V50.365C187.83 49.655 187.705 49.14 187.455 48.82C187.205 48.49 186.805 48.325 186.255 48.325C185.625 48.325 185.125 48.545 184.755 48.985C184.395 49.415 184.215 49.995 184.215 50.725V55H183V50.365C183 49.655 182.875 49.14 182.625 48.82C182.375 48.49 181.975 48.325 181.425 48.325C180.795 48.325 180.3 48.545 179.94 48.985C179.58 49.415 179.4 49.995 179.4 50.725V55H178.185ZM194.699 55.135C193.519 55.135 192.589 54.795 191.909 54.115C191.229 53.425 190.889 52.47 190.889 51.25C190.889 50.46 191.039 49.775 191.339 49.195C191.639 48.605 192.059 48.15 192.599 47.83C193.139 47.5 193.759 47.335 194.459 47.335C195.149 47.335 195.729 47.48 196.199 47.77C196.669 48.06 197.029 48.475 197.279 49.015C197.529 49.545 197.654 50.175 197.654 50.905V51.355H191.819V50.59H196.859L196.604 50.785C196.604 49.985 196.424 49.36 196.064 48.91C195.704 48.46 195.169 48.235 194.459 48.235C193.709 48.235 193.124 48.5 192.704 49.03C192.284 49.55 192.074 50.255 192.074 51.145V51.28C192.074 52.22 192.304 52.935 192.764 53.425C193.234 53.905 193.889 54.145 194.729 54.145C195.179 54.145 195.599 54.08 195.989 53.95C196.389 53.81 196.769 53.585 197.129 53.275L197.549 54.13C197.219 54.45 196.799 54.7 196.289 54.88C195.789 55.05 195.259 55.135 194.699 55.135ZM199.514 55V49.21C199.514 48.93 199.499 48.645 199.469 48.355C199.449 48.055 199.424 47.76 199.394 47.47H200.564L200.714 49.12H200.534C200.754 48.54 201.104 48.1 201.584 47.8C202.074 47.49 202.639 47.335 203.279 47.335C204.169 47.335 204.839 47.575 205.289 48.055C205.749 48.525 205.979 49.27 205.979 50.29V55H204.764V50.365C204.764 49.655 204.619 49.14 204.329 48.82C204.049 48.49 203.609 48.325 203.009 48.325C202.309 48.325 201.754 48.54 201.344 48.97C200.934 49.4 200.729 49.975 200.729 50.695V55H199.514ZM210.973 55.135C210.233 55.135 209.668 54.925 209.278 54.505C208.888 54.075 208.693 53.43 208.693 52.57V48.415H207.223V47.47H208.693V45.415L209.908 45.07V47.47H212.068V48.415H209.908V52.435C209.908 53.035 210.008 53.465 210.208 53.725C210.418 53.975 210.728 54.1 211.138 54.1C211.328 54.1 211.498 54.085 211.648 54.055C211.798 54.015 211.933 53.97 212.053 53.92V54.94C211.913 55 211.743 55.045 211.543 55.075C211.353 55.115 211.163 55.135 210.973 55.135Z" fill="#0E0E0E"/>
<path fill-rule="evenodd" clip-rule="evenodd" d="M24.4217 6C36.8244 6 47.0686 14.8978 48.6356 26.4212H15.5696V23.9161L4.28035 29.511L15.5696 35.1059V32.6007H48.6318C47.0547 44.1144 36.8168 53 24.4217 53C17.0897 53 10.5128 49.8908 6.03733 44.9682H27.5075V47.4733L38.7968 41.8784L27.5075 36.2835V38.7887H1.98246C0.708113 35.9389 0 32.7992 0 29.5C0 26.2008 0.706847 23.0599 1.98373 20.2113H27.5075V22.7165L38.7968 17.1216L27.5075 11.5267V14.0318H6.03733C10.514 9.10922 17.091 6 24.4217 6Z" fill="#00A859"/>
</svg>
