<svg width="26" height="26" viewBox="0 0 26 26" fill="none" xmlns="http://www.w3.org/2000/svg">
<path fill-rule="evenodd" clip-rule="evenodd" d="M13.0555 0C19.6859 0 25.1623 4.92216 26 11.2968H8.32333V9.91102L2.28822 13.0061L8.32333 16.1011V14.7153H25.998C25.1549 21.0846 19.6818 26 13.0555 26C9.13596 26 5.61999 24.28 3.22748 21.5569H14.7052V22.9427L20.7403 19.8476L14.7052 16.7526V18.1384H1.0598C0.378549 16.5619 0 14.8251 0 13C0 11.1749 0.377872 9.4374 1.06048 7.86158H14.7052V9.24741L20.7403 6.15236L14.7052 3.05732V4.44315H3.22748C5.62067 1.71999 9.13664 0 13.0555 0Z" fill="white"/>
</svg>
