<svg width="80" height="23" viewBox="0 0 80 23" fill="none" xmlns="http://www.w3.org/2000/svg">
<path d="M30.3836 0.40588L19.9013 22.6615L13.0649 22.6615L7.89973 4.857C7.85538 4.4435 7.69234 4.04711 7.4263 3.70593C7.16025 3.36475 6.80013 3.09025 6.38055 2.9088C4.35319 2.03752 2.20891 1.40096 -4.99309e-08 1.01469L0.151916 0.365293L11.1508 0.365293C11.879 0.356946 12.5864 0.581857 13.1441 0.999044C13.7018 1.41623 14.0727 1.99793 14.1891 2.6382L16.9237 15.5181L23.5777 0.40588L30.3836 0.40588ZM57.1515 15.3963C57.1515 9.52461 48.0365 9.1999 48.0365 6.57522C48.0365 5.777 48.9024 4.92465 50.771 4.70818C52.9604 4.52159 55.1656 4.86762 57.1515 5.70935L58.2757 0.98763C56.3325 0.338193 54.2745 0.00371325 52.199 -1.07948e-06C45.8185 -1.32723e-06 41.3217 3.03056 41.2761 7.35992C41.2761 10.5664 44.4968 12.3522 46.9427 13.4075C49.3885 14.4628 50.3 15.2069 50.3 16.1134C50.3 17.6016 48.2795 18.2645 46.4261 18.2916C44.1205 18.3465 41.8367 17.8811 39.7873 16.9386L38.6175 21.8092C40.9067 22.6073 43.345 23.0113 45.8033 22.9998C52.594 22.9998 57.03 20.0098 57.0604 15.3828L57.1515 15.3963ZM73.9233 22.648L80 22.648L74.7436 0.405882L69.2138 0.405882C68.6269 0.413055 68.0549 0.571476 67.5669 0.861991C67.0789 1.15251 66.6959 1.56268 66.4641 2.04293L56.7717 22.6615L63.5929 22.6615L64.9449 19.3469L73.2245 19.3469L73.9233 22.648ZM66.7224 14.7604L70.1861 6.37229L72.1306 14.7334L66.7224 14.7604ZM39.605 0.405881L34.2727 22.6615L27.801 22.6615L33.1485 0.40588L39.605 0.405881Z" fill="white"/>
</svg>
