<svg width="35" height="35" viewBox="0 0 35 35" fill="none" xmlns="http://www.w3.org/2000/svg">
<path fill-rule="evenodd" clip-rule="evenodd" d="M17.5748 0C26.5002 0 33.8723 6.62598 35 15.2073H11.2045V13.3418L3.0803 17.5082L11.2045 21.6746V19.809H34.9973C33.8623 28.3831 26.4948 35 17.5748 35C12.2984 35 7.56537 32.6846 4.34469 29.0188H19.7954V30.8844L27.9196 26.718L19.7954 22.5516V24.4171H1.42666C0.509585 22.2949 0 19.9569 0 17.5C0 15.0431 0.508673 12.7042 1.42757 10.5829H19.7954V12.4484L27.9196 8.28203L19.7954 4.11562V5.98116H4.34469C7.56629 2.31538 12.2993 0 17.5748 0Z" fill="#00A75A"/>
</svg>
